<svg width="50" height="50" viewBox="0 0 50 50" fill="none" xmlns="http://www.w3.org/2000/svg">
<g id="24 / basic / circle-x">
<path id="icon" fill-rule="evenodd" clip-rule="evenodd" d="M24.9997 47.9167C12.3431 47.9167 2.08301 37.6565 2.08301 25C2.08301 12.3435 12.3431 2.08333 24.9997 2.08333C37.6562 2.08333 47.9163 12.3435 47.9163 25C47.9163 37.6565 37.6562 47.9167 24.9997 47.9167ZM24.9997 43.75C35.3551 43.75 43.7497 35.3553 43.7497 25C43.7497 14.6447 35.3551 6.25 24.9997 6.25C14.6444 6.25 6.24971 14.6447 6.24971 25C6.24971 35.3553 14.6444 43.75 24.9997 43.75ZM18.1396 34.8065L24.9998 27.9463L31.86 34.8065L34.8062 31.8602L27.946 25L34.8062 18.1398L31.86 15.1935L24.9998 22.0537L18.1396 15.1935L15.1933 18.1398L22.0535 25L15.1933 31.8602L18.1396 34.8065Z" fill="white"/>
</g>
</svg>
