<svg width="70" height="70" viewBox="0 0 70 70" fill="none" xmlns="http://www.w3.org/2000/svg">
<g id="24 / shopping / delivery">
<path id="icon" fill-rule="evenodd" clip-rule="evenodd" d="M47.7807 20.4166L53.1543 31.1637L61.25 36.5609V46.6666H57.8354C56.6342 43.2681 53.3931 40.8333 49.5833 40.8333C45.7735 40.8333 42.5324 43.2681 41.3312 46.6666H28.6687C27.4675 43.2681 24.2264 40.8333 20.4166 40.8333C16.6068 40.8333 13.3657 43.2681 12.1645 46.6666H8.74996V20.4166H47.7807ZM61.25 52.4999H57.8354C56.6342 55.8984 53.3931 58.3333 49.5833 58.3333C45.7735 58.3333 42.5324 55.8984 41.3312 52.4999H28.6687C27.4675 55.8984 24.2264 58.3333 20.4166 58.3333C16.6068 58.3333 13.3657 55.8984 12.1645 52.4999H8.74996C5.5283 52.4999 2.91663 49.8882 2.91663 46.6666V20.4166C2.91663 17.1949 5.5283 14.5833 8.74996 14.5833H47.7807C49.9902 14.5833 52.0101 15.8316 52.9982 17.8078L57.679 27.1694L67.0833 33.439V46.6666C67.0833 49.8882 64.4716 52.4999 61.25 52.4999ZM23.3333 49.5833C23.3333 51.1941 22.0275 52.4999 20.4166 52.4999C18.8058 52.4999 17.5 51.1941 17.5 49.5833C17.5 47.9724 18.8058 46.6666 20.4166 46.6666C22.0275 46.6666 23.3333 47.9724 23.3333 49.5833ZM52.5 49.5833C52.5 51.1941 51.1941 52.4999 49.5833 52.4999C47.9725 52.4999 46.6666 51.1941 46.6666 49.5833C46.6666 47.9724 47.9725 46.6666 49.5833 46.6666C51.1941 46.6666 52.5 47.9724 52.5 49.5833Z" fill="white"/>
</g>
</svg>
