<svg width="70" height="70" viewBox="0 0 70 70" fill="none" xmlns="http://www.w3.org/2000/svg">
<g id="24 / shopping / discount">
<path id="icon" fill-rule="evenodd" clip-rule="evenodd" d="M35 67.0834C17.2808 67.0834 2.91663 52.7192 2.91663 35.0001C2.91663 17.2809 17.2808 2.91675 35 2.91675C52.7191 2.91675 67.0833 17.2809 67.0833 35.0001C67.0833 52.7192 52.7191 67.0834 35 67.0834ZM35 61.2501C49.4974 61.2501 61.25 49.4976 61.25 35.0001C61.25 20.5026 49.4974 8.75008 35 8.75008C20.5025 8.75008 8.74996 20.5026 8.74996 35.0001C8.74996 49.4976 20.5025 61.2501 35 61.2501ZM37.9166 43.7501C37.9166 48.5826 41.8341 52.5001 46.6666 52.5001C51.4991 52.5001 55.4166 48.5826 55.4166 43.7501C55.4166 38.9176 51.4991 35.0001 46.6666 35.0001C41.8341 35.0001 37.9166 38.9176 37.9166 43.7501ZM46.6666 46.6667C48.2775 46.6667 49.5833 45.3609 49.5833 43.7501C49.5833 42.1392 48.2775 40.8334 46.6666 40.8334C45.0558 40.8334 43.75 42.1392 43.75 43.7501C43.75 45.3609 45.0558 46.6667 46.6666 46.6667ZM14.5833 26.2501C14.5833 31.0826 18.5008 35.0001 23.3333 35.0001C28.1658 35.0001 32.0833 31.0826 32.0833 26.2501C32.0833 21.4176 28.1658 17.5001 23.3333 17.5001C18.5008 17.5001 14.5833 21.4176 14.5833 26.2501ZM23.3333 29.1667C24.9441 29.1667 26.25 27.8609 26.25 26.2501C26.25 24.6393 24.9441 23.3334 23.3333 23.3334C21.7225 23.3334 20.4166 24.6393 20.4166 26.2501C20.4166 27.8609 21.7225 29.1667 23.3333 29.1667ZM22.989 52.5001H29.5109L47.0109 17.5001H40.489L22.989 52.5001Z" fill="white"/>
</g>
</svg>
