<svg width="70" height="70" viewBox="0 0 70 70" fill="none" xmlns="http://www.w3.org/2000/svg">
<g id="24 / call / call-calling">
<path id="icon" fill-rule="evenodd" clip-rule="evenodd" d="M31.6651 24.319C33.1762 22.2825 33.7181 20.1363 32.009 18.2418C28.1737 12.8752 25.5944 9.55652 23.9765 7.95832C20.9007 4.91993 15.841 5.33092 13.1771 7.95572C11.7463 9.36553 11.262 9.84966 9.79286 11.3419C1.60971 19.5294 6.60021 36.8376 19.8668 50.1172C33.1304 63.3938 50.4369 68.387 58.6372 60.1821C59.9929 58.8752 61.1407 57.7268 62.0459 56.77C64.6564 54.0108 65.0528 49.1742 62.0288 46.0321C60.4784 44.4212 57.3137 41.9664 51.7213 37.9661C50.0085 36.4346 47.9777 36.7665 46.1158 37.988C45.2202 38.5756 44.5684 39.17 43.3377 40.4019L41.1028 42.638C40.8084 42.9325 36.8114 40.9309 32.9315 37.0471C29.0494 33.1612 27.0491 29.164 27.3421 28.871C27.9463 28.2669 28.6917 27.5211 29.5785 26.6334C29.969 26.2425 30.1557 26.0533 30.3951 25.8017C30.8938 25.2775 31.3068 24.8018 31.6651 24.319ZM45.2253 46.7629L47.4606 44.5264C48.138 43.8484 48.5769 43.4315 48.934 43.1441C53.833 46.6622 56.6703 48.8743 57.8292 50.0785C58.525 50.8014 58.4169 52.1206 57.812 52.7599C56.9749 53.6446 55.8874 54.7328 54.5528 56.02C49.2502 61.3249 35.28 57.2943 23.9902 45.9934C12.6969 34.689 8.66824 20.7167 13.9308 15.4512C15.394 13.9651 15.8576 13.5018 17.268 12.1121C17.7968 11.591 19.2372 11.474 19.8805 12.1095C21.1261 13.34 23.4367 16.2985 26.8356 21.0332C26.6597 21.2517 26.4399 21.4986 26.1725 21.7796C25.9762 21.986 25.8126 22.1517 25.4551 22.5096C24.569 23.3966 23.8242 24.1418 23.2209 24.7451C19.42 28.5456 22.657 35.0139 28.8081 41.1711C34.955 47.324 41.4257 50.5646 45.2253 46.7629ZM39.8274 6.03575C52.4371 7.56419 62.4356 17.5627 63.964 30.1723L58.2023 31.1326C57.0899 20.9757 49.0241 12.9099 38.8671 11.7974L39.8274 6.03575ZM37.9061 17.5642C45.6105 18.2533 51.7466 24.3894 52.4357 32.0939L46.6556 33.0572C46.4103 27.8046 42.1953 23.5897 36.9427 23.3444L37.9061 17.5642Z" fill="white"/>
</g>
</svg>
