<svg width="16" height="16" viewBox="0 0 16 16" fill="none" xmlns="http://www.w3.org/2000/svg">
<path fill-rule="evenodd" clip-rule="evenodd" d="M15.1469 4.125C15.2581 3.7725 15.1469 3.51625 14.6547 3.51625H13.0181C12.6053 3.51625 12.4147 3.74062 12.3034 3.98062C12.3034 3.98062 11.4616 6.03062 10.2859 7.35969C9.90469 7.74406 9.73 7.87219 9.52344 7.87219C9.41219 7.87219 9.26906 7.74406 9.26906 7.39187V4.10844C9.26906 3.69219 9.14219 3.5 8.7925 3.5H6.21875C5.96438 3.5 5.80563 3.69219 5.80563 3.88438C5.80563 4.28469 6.39344 4.38094 6.45688 5.50187V7.9375C6.45688 8.46594 6.36313 8.5625 6.155 8.5625C5.59906 8.5625 4.24875 6.49656 3.43875 4.1425C3.28125 3.67625 3.12125 3.5 2.70813 3.5H1.05594C0.579375 3.5 0.5 3.72406 0.5 3.96438C0.5 4.39688 1.05594 6.57469 3.08938 9.45719C4.43969 11.4259 6.36188 12.4841 8.09344 12.4841C9.14219 12.4841 9.26906 12.2437 9.26906 11.8434V10.3541C9.26906 9.87375 9.36438 9.79375 9.69813 9.79375C9.93625 9.79375 10.3653 9.92156 11.3344 10.8666C12.4463 11.9875 12.6369 12.5 13.2566 12.5H14.8928C15.3694 12.5 15.5919 12.2597 15.4647 11.7953C15.3219 11.3309 14.7816 10.6584 14.0825 9.85781C13.7013 9.40969 13.1294 8.91313 12.9547 8.67281C12.7166 8.3525 12.78 8.22438 12.9547 7.93625C12.9388 7.93625 14.9406 5.08563 15.1469 4.12375" fill="white"/>
</svg>
